<?xml version="1.0" encoding="utf-8"?>
<!-- Generator: Adobe Illustrator 16.0.0, SVG Export Plug-In . SVG Version: 6.00 Build 0)  -->
<!DOCTYPE svg PUBLIC "-//W3C//DTD SVG 1.0//EN" "http://www.w3.org/TR/2001/REC-SVG-20010904/DTD/svg10.dtd">
<svg version="1.0" id="Layer_1" xmlns="http://www.w3.org/2000/svg" xmlns:xlink="http://www.w3.org/1999/xlink" x="0px" y="0px"
	 width="500px" height="540px" viewBox="0 0 500 540" enable-background="new 0 0 500 540" xml:space="preserve">
<g>
	<g>
		<path fill="#231F20" d="M250.01,517.043c-14.333-15.686-37.744-29.453-64.817-40.478c-24.077-9.814-54.972-17.017-80.149-25.771
			c-24.863-8.654-44.018-18.005-58.845-31.42c-11.56-10.439-20.517-23.301-27.295-40.377c-7.707-19.478-7.504-43.353-4.892-63.809
			c2.996-23.673,11.136-40.195,16.512-65.009c2.784-12.86,4.842-27.688,5.043-47.509c0.303-28.605-8.009-51.785-22.312-75.136
			c-3.642-5.94-7.707-10.581-12.166-16.451l66.835-78.141c15.301,8.613,45.369,23.936,86.442,24.017
			c36.847,2.662,72.362-12.478,95.642-34.022c23.281,21.545,58.807,36.694,95.643,34.022c41.082-0.071,71.15-15.393,86.463-24.007
			l66.844,78.141c-4.469,5.871-8.531,10.501-12.174,16.452c-14.303,23.351-22.625,46.529-22.322,75.125
			c0.191,19.821,2.25,34.658,5.053,47.509c5.367,24.824,13.506,41.336,16.514,65.019c2.602,20.446,2.834,44.331-4.912,63.799
			c-6.758,17.086-15.736,29.938-27.266,40.387c-14.857,13.415-34.002,22.766-58.855,31.42c-25.188,8.755-56.072,15.947-80.16,25.762
			C287.764,487.6,264.354,501.368,250.01,517.043"/>
	</g>
	<path fill="#FFFFFF" d="M42.356,359.822c-11.469-61.419,20.849-78.444,21.605-151.704c0.343-31.885-6.466-65.775-27.385-96.428
		l38.309-44.815c12.104,7.121,44.058,14.938,79.563,15.342c35.505,0.403,71.667-7.041,95.561-26.498
		c23.916,19.417,60.066,26.86,95.561,26.447c35.518-0.394,67.461-8.201,79.584-15.332l38.289,44.815
		c-8.371,12.265-14.473,25.065-18.779,38.036L42.356,359.822"/>
	<path fill="#FFFFFF" d="M250.01,484.482c-28.323-31.046-113.293-48.949-138.53-57.756c-32.015-11.186-57.333-28.283-66.532-56.404
		L440.75,163.575c-3.492,14.918-4.844,29.917-4.68,44.503c0.764,74.147,33.891,90.678,21.17,153.973
		c-6.646,33.104-33.699,52.39-68.699,64.635C363.314,435.503,278.334,453.396,250.01,484.482"/>
	<path fill="#231F20" d="M141.326,388.468c0.232,0.363,0.292,0.636,0.171,0.807c-0.05,0.102-0.282,0.283-0.726,0.576
		c-1.109,0.716-2.723,1.633-4.882,2.742c-3.026,1.595-4.842,2.472-5.447,2.653c-0.585,0.171-1.009,0.071-1.241-0.293
		c-0.898-1.372-2.148-3.499-3.772-6.354c-1.645-2.844-2.895-4.963-3.783-6.345c-0.434-0.686-0.898-0.967-1.382-0.856
		c-0.756,0.202-3.106,1.351-7.111,3.439c-3.995,2.088-6.294,3.39-6.879,3.873c-0.363,0.313-0.313,0.817,0.141,1.522
		c0.868,1.371,2.219,3.39,4.045,6.063s3.178,4.701,4.044,6.072c0.344,0.515,0.284,0.968-0.181,1.321
		c-0.545,0.423-2.331,1.442-5.326,2.996c-2.602,1.361-4.297,2.178-5.063,2.462c-0.625,0.201-1.069,0.08-1.372-0.374
		c-1.2-1.877-2.915-4.791-5.153-8.705c-2.23-3.894-3.964-6.808-5.175-8.705c-1.292-2.027-3.339-5.013-6.133-8.967
		c-2.805-3.944-4.842-6.939-6.132-8.957c-0.262-0.393-0.183-0.687,0.231-0.898c0.595-0.322,1.503-0.766,2.754-1.341
		c1.23-0.584,2.158-1.028,2.764-1.341c0.615-0.323,1.533-0.838,2.734-1.543c1.22-0.707,2.128-1.212,2.753-1.554
		c0.323-0.162,0.585-0.102,0.787,0.222c0.848,1.301,1.987,3.319,3.45,6.032c1.453,2.702,2.603,4.71,3.45,6.021
		c0.383,0.606,0.796,0.868,1.23,0.776c0.585-0.13,3.086-1.33,7.504-3.661c4.115-2.158,6.456-3.47,7.021-3.953
		c0.393-0.344,0.393-0.817,0.01-1.422c-0.806-1.262-2.088-3.097-3.853-5.568c-1.765-2.462-3.056-4.317-3.873-5.587
		c-0.343-0.546-0.273-0.939,0.211-1.191c0.554-0.303,1.422-0.717,2.602-1.271c1.19-0.536,2.058-0.959,2.623-1.271
		c0.575-0.292,1.402-0.766,2.522-1.411c1.109-0.656,1.957-1.13,2.542-1.443c0.545-0.283,0.969-0.221,1.231,0.202
		c1.291,2.007,3.126,5.073,5.547,9.219c2.431,4.136,4.276,7.213,5.568,9.239c1.22,1.896,3.147,4.7,5.79,8.403
		C138.189,383.787,140.116,386.571,141.326,388.468"/>
	<path fill="#231F20" d="M184.9,365.895c0.191,0.302,0.091,0.655-0.312,1.028c-0.485,0.444-2.22,1.442-5.246,3.036
		c-2.763,1.432-4.579,2.29-5.446,2.571c-0.736,0.212-1.392,0.041-1.987-0.544c-2.229-2.199-3.581-3.299-4.024-3.289
		c-0.364,0.071-2.986,1.384-7.848,3.925c-3.278,1.725-4.982,2.724-5.083,3.016c-0.142,0.443,0.06,1.574,0.645,3.369
		c0.545,1.604,0.606,2.622,0.162,3.016c-0.585,0.484-2.724,1.715-6.476,3.662c-2.946,1.553-4.58,2.077-4.902,1.583
		c-0.282-0.454-1.674-7.171-4.176-20.123c-2.693-14.01-4.196-21.706-4.539-23.079c-0.182-0.775-0.121-1.25,0.182-1.421
		c0.524-0.263,1.372-0.646,2.521-1.13c1.16-0.505,1.997-0.878,2.542-1.159c0.524-0.284,1.28-0.718,2.249-1.312
		c0.978-0.586,1.725-1.021,2.229-1.282c0.364-0.202,0.888-0.091,1.563,0.313c2.119,1.341,8.866,6.173,20.285,14.504
		C178.708,360.992,184.588,365.409,184.9,365.895 M149.204,352.813c0.081,0.968,0.484,2.985,1.15,6.041
		c0.706,3.228,1.21,5.104,1.493,5.578c0.212,0.313,0.908,0.181,2.058-0.374c0.605-0.271,1.593-0.766,2.945-1.472
		c1.251-0.655,1.856-1.151,1.816-1.493c-0.01-0.101-0.071-0.222-0.162-0.384c-0.373-0.574-1.815-1.946-4.357-4.105
		C151.695,354.557,150.041,353.286,149.204,352.813"/>
	<path fill="#231F20" d="M204.055,308.752c1.271,1.978,3.097,5.014,5.487,9.109c2.36,4.064,4.197,7.121,5.478,9.128l11.055,17.259
		c0.292,0.474,0.171,0.868-0.393,1.149c-0.454,0.243-1.15,0.626-2.078,1.16c-0.908,0.524-1.594,0.908-2.058,1.149
		c-0.514,0.272-1.291,0.636-2.34,1.09c-1.049,0.454-1.836,0.816-2.34,1.08c-0.343,0.181-0.928,0.11-1.795-0.223
		c-2.461-0.959-7.989-3.077-16.573-6.345c-2.371-0.917-5.921-2.249-10.671-3.984c-0.151-0.06-0.353-0.101-0.635-0.101
		c-0.061,0.202,0,0.424,0.161,0.697c1.312,2.017,3.309,5.021,6.011,9.007c2.694,3.974,4.711,6.989,6.002,9.007
		c0.373,0.605,0.313,1.039-0.192,1.321l-9.986,5.215c-0.555,0.303-0.999,0.182-1.351-0.363c-1.21-1.887-2.925-4.791-5.155-8.695
		c-2.239-3.923-3.954-6.828-5.174-8.724c-1.281-2.018-3.288-4.973-6.032-8.888c-2.723-3.903-4.73-6.858-6.001-8.836
		c-0.252-0.393,0-0.766,0.747-1.159c1.119-0.585,2.43-1.372,3.974-2.351c0.373-0.222,1.059-0.726,2.078-1.492
		c0.868-0.625,1.563-1.109,2.128-1.393c0.222-0.13,0.767-0.02,1.634,0.313l19.347,7.676c1.734,0.696,4.316,1.675,7.747,2.977
		c0.827,0.281,1.422,0.342,1.755,0.149c0.242-0.13-0.081-0.857-0.949-2.229c-1.169-1.826-3.046-4.528-5.627-8.079
		c-2.603-3.571-4.489-6.274-5.669-8.121c-0.424-0.645-0.424-1.078-0.01-1.28c1.16-0.615,2.875-1.584,5.174-2.874
		c2.3-1.312,4.015-2.27,5.175-2.886C203.349,308.036,203.702,308.198,204.055,308.752"/>
	<path fill="#231F20" d="M258.281,303.487c3.287,5.135,4.297,10.551,3.076,16.23c-1.059,5.063-4.447,9.188-10.156,12.426
		c-1.09,0.604-4.157,2.239-9.189,4.882c-0.959,0.485-2.391,1.21-4.317,2.148s-3.379,1.665-4.317,2.158
		c-0.555,0.293-0.979,0.243-1.231-0.161c-1.23-1.926-2.986-4.851-5.276-8.796c-2.279-3.943-4.054-6.868-5.285-8.795
		c-1.271-2.007-3.288-4.973-6.031-8.886c-2.744-3.914-4.741-6.87-6.012-8.856c-0.232-0.363-0.1-0.727,0.424-1.099
		c1.271-0.858,3.47-2.099,6.597-3.743c5.951-3.105,9.825-5.033,11.691-5.8c4.841-1.987,9.087-2.804,12.739-2.481
		c3.45,0.303,6.778,1.502,9.986,3.591C254.035,298.263,256.486,300.664,258.281,303.487 M247.227,309.297
		c-1.896-2.945-4.398-4.852-7.525-5.688c-3.208-0.919-6.415-0.525-9.643,1.159c-2.965,1.554-4.216,2.683-3.752,3.399
		c0.666,1.028,1.625,2.592,2.905,4.669c1.301,2.099,2.259,3.653,2.925,4.691c0.645,0.998,1.644,2.521,2.986,4.528
		c1.331,2.019,2.319,3.531,2.995,4.55c0.474,0.767,2.25,0.323,5.326-1.281c3.318-1.734,5.295-4.115,5.9-7.111
		C249.929,315.381,249.223,312.404,247.227,309.297"/>
	<path fill="#231F20" d="M301.633,290.466c2.059,3.237,2.664,6.475,1.797,9.754c-0.949,3.752-4.609,7.292-10.934,10.602
		c-0.484,0.262-1.191,0.615-2.1,1.068c-0.928,0.483-1.613,0.847-2.059,1.08c-7.09,3.711-11.396,5.8-12.91,6.243
		c-0.623,0.171-1.078,0.051-1.35-0.383c-1.191-1.856-2.906-4.761-5.084-8.655c-2.199-3.914-3.895-6.809-5.094-8.685
		c-1.291-2.027-3.854-5.789-7.656-11.236c-0.969-1.402-2.441-3.49-4.439-6.274l-0.271-0.353c-0.232-0.313-0.051-0.675,0.535-1.079
		c0.584-0.384,2.783-1.594,6.617-3.611c6.152-3.207,9.764-5.073,10.82-5.599c4.844-2.319,8.777-3.459,11.834-3.408
		c4.035,0.102,7.322,2.098,9.834,6.031c0.656,1.029,1.02,2.31,1.059,3.813c0,1.09-0.121,2.249-0.424,3.479
		c-0.24,1.089-0.402,1.613-0.443,1.554c0.082,0.12,0.465,0.19,1.131,0.19c1.795-0.01,3.57,0.545,5.305,1.664
		C299.365,287.673,300.645,288.933,301.633,290.466 M279.836,282.226c-0.957-1.483-2.41-2.048-4.387-1.665
		c-1.09,0.241-2.684,0.897-4.803,2.007c-2.078,1.09-3.025,1.775-2.854,2.059c0.213,0.323,0.504,0.848,0.857,1.533
		c0.363,0.705,0.645,1.229,0.855,1.553c1.102,1.725,1.887,2.622,2.342,2.643c0.313,0.041,1.594-0.505,3.813-1.674
		C279.807,286.501,281.199,284.353,279.836,282.226 M289.994,296.478c-1.01-1.595-2.42-2.28-4.217-2.098
		c-1.129,0.141-2.744,0.745-4.801,1.814c-2.482,1.313-3.773,2.088-3.873,2.372c-0.111,0.281,0.484,1.4,1.754,3.398
		c1.311,2.077,2.18,3.146,2.563,3.237c0.404,0.091,1.855-0.525,4.357-1.836c2.078-1.078,3.43-2.007,4.084-2.733
		C290.941,299.393,290.982,298.011,289.994,296.478"/>
	<path fill="#231F20" d="M341.012,260.499c3.461,5.437,4.459,10.994,2.975,16.682c-1.541,5.791-5.295,10.26-11.305,13.396
		c-5.973,3.138-12.105,3.843-18.461,2.129c-6.213-1.655-11.055-5.175-14.504-10.581c-3.48-5.427-4.459-10.984-2.965-16.713
		c1.514-5.83,5.266-10.319,11.227-13.436c5.91-3.117,12.074-3.804,18.449-2.089C332.682,251.571,337.553,255.112,341.012,260.499
		 M329.977,266.188c-1.674-2.603-3.953-4.358-6.879-5.286c-3.064-0.938-6.012-0.665-8.877,0.838
		c-2.723,1.422-4.396,3.632-5.012,6.597c-0.615,2.864-0.111,5.547,1.463,8.02c1.715,2.671,3.973,4.437,6.838,5.294
		c3.006,0.918,5.951,0.605,8.865-0.928c2.734-1.421,4.408-3.61,5.055-6.576C332.055,271.321,331.582,268.659,329.977,266.188"/>
	<path fill="#231F20" d="M383.992,263.111c-1.666,0.877-3.844,1.956-6.547,3.277c-3.531,1.745-5.709,2.824-6.576,3.258l-8.715,4.409
		c-0.848,0.473-2.119,1.088-3.803,1.846c-0.615,0.212-1.061,0.079-1.352-0.374c-1.221-1.896-3.016-4.761-5.377-8.584
		c-2.369-3.813-4.154-6.677-5.377-8.583c-1.289-2.018-3.297-5.014-6.031-8.968c-2.732-3.974-4.74-6.959-6.041-8.977
		c-0.242-0.374-0.07-0.727,0.504-1.039c0.584-0.292,1.453-0.727,2.643-1.281c1.18-0.534,2.047-0.969,2.623-1.251
		c0.625-0.333,1.564-0.856,2.783-1.583c1.191-0.717,2.129-1.241,2.764-1.584c0.293-0.141,0.545-0.05,0.727,0.293l0.182,0.353
		c1.875,3.39,4.781,8.442,8.693,15.15l4.389,6.909c1.422,2.229,2.473,3.854,3.148,4.872c0.15,0.202,0.313,0.394,0.473,0.605
		c0.141,0.191,0.373,0.231,0.676,0.151c0.021,0,0.273-0.132,0.756-0.394c1.736-0.907,4.277-2.341,7.627-4.307
		c3.357-1.968,5.91-3.409,7.635-4.317c0.514-0.272,0.918-0.202,1.17,0.211c1.908,2.967,3.34,5.689,4.266,8.091
		c0.193,0.523,0.164,0.888-0.078,1.149C385.07,262.516,384.688,262.748,383.992,263.111"/>
	<path fill="#231F20" d="M416.391,246.135c-1.664,0.868-3.844,1.978-6.547,3.288c-3.531,1.734-5.709,2.814-6.576,3.238l-8.717,4.418
		c-0.848,0.494-2.117,1.099-3.791,1.856c-0.625,0.201-1.059,0.08-1.373-0.373c-1.209-1.907-3.006-4.761-5.355-8.584
		c-2.371-3.834-4.164-6.698-5.375-8.584c-1.291-2.027-3.309-5.023-6.051-8.988c-2.725-3.953-4.723-6.939-6.033-8.967
		c-0.223-0.393-0.07-0.726,0.504-1.028c0.596-0.313,1.473-0.726,2.643-1.281c1.189-0.544,2.059-0.969,2.621-1.271
		c0.627-0.333,1.574-0.857,2.775-1.573c1.209-0.716,2.148-1.251,2.795-1.574c0.281-0.172,0.523-0.07,0.705,0.272l0.191,0.363
		c1.867,3.389,4.771,8.442,8.686,15.15l4.387,6.909c1.424,2.229,2.48,3.854,3.156,4.882c0.152,0.182,0.314,0.403,0.465,0.585
		c0.152,0.202,0.383,0.262,0.686,0.172c0.01-0.011,0.264-0.142,0.748-0.394c1.732-0.907,4.277-2.351,7.625-4.307
		c3.35-1.978,5.91-3.409,7.646-4.318c0.502-0.281,0.906-0.212,1.168,0.183c1.918,3.005,3.33,5.698,4.258,8.119
		c0.201,0.505,0.16,0.878-0.092,1.12C417.469,245.54,417.086,245.771,416.391,246.135"/>
	<path fill="#009D57" d="M178.858,249.847c-1.675-0.736-1.382-1.896,0.686-2.703c3.732-1.422,29.15-3.309,36.574-6.476
		c11.176-4.771,20.385-11.861,19.134-27.93c-0.857-11.187-7.887-19.457-8.019-21.253c-0.171-2.371,4.005-0.081,2.098-14.736
		c-0.231-1.917-3.914-8.544-6.294-11.298c-7.041-8.16-9.743-6.223-10.126-7.494c-0.404-1.261-0.687-9.118-6.314-14.979
		c-7.404-7.707-14.969-6.738-14.687-7.373c2.099-4.923,1.473-6.042-6.919-11.843c-4.781-3.317-10.389-2.36-25.469-13.646
		c-2.683-2.018-4.438-8.271-4.438-8.271s-1.674,4.599-3.217,6.696c-3.652,5.034-16.613,10.521-24.823,14.404
		c-4.549,2.148-12.327,6.244-8.786,12.659c0.423,0.746-6.738-0.384-13.436,6.163c-9.421,9.199-5.991,13.869-7.313,15.967
		c-0.515,0.827-6.729-0.282-13.95,12.981c-6.728,12.326-1.14,18.065-0.888,21.001c0.141,1.382-7.464,6.192-7.323,25.6
		c0.09,14.091,10.208,20.738,15.987,22.463c10.42,3.117,26.286,5.991,34.486,6.667c4.257,0.354,6.234,0.666,6.273,2.28
		c0.021,0.414-0.222,0.716-0.625,0.958c0,0,8.715,11.862,23.644,11.63C176.599,260.982,178.858,249.847,178.858,249.847"/>
	<polyline fill="#FFFFFF" points="152.946,256.988 93.677,203.115 96.652,200.543 152.946,251.632 152.946,209.006 111.591,171.595 
		114.546,169.134 152.946,203.741 152.946,167.187 128.708,145.369 131.542,142.585 152.946,161.852 152.946,121.423 
		157.051,121.402 157.051,161.981 178.747,142.646 181.582,145.147 157.051,167.187 157.051,203.862 195.976,169.022 
		198.709,171.695 157.051,209.106 157.051,251.683 213.9,200.654 216.724,203.227 157.051,257.1 	"/>
	<path fill="#231F20" d="M293,392.946c0,0.413-0.061,1.059-0.152,1.906c-0.111,0.837-0.172,1.473-0.172,1.906
		c0,0.444,0,1.141-0.02,2.088c-0.02,0.938-0.041,1.634-0.041,2.088c0,0.453-0.322,0.676-0.998,0.676
		c-0.252,0-1.199-0.15-2.855-0.504c-1.855-0.353-5.305-0.534-10.348-0.534c-1.574,0-3.914,0.08-7.041,0.251
		c-3.115,0.163-5.445,0.242-6.969,0.242c-0.535,0-0.828-0.222-0.889-0.686c-0.07-0.636-0.211-1.563-0.463-2.793
		c-0.494-1.887-0.756-2.966-0.756-3.249c0-0.393,0.846-0.686,2.551-0.887c1.988-0.233,3.258-0.546,3.834-0.958
		c2.047-1.564,4.145-3.551,6.283-5.932c2.744-3.026,4.115-5.285,4.115-6.778c0-1.311-0.525-2.41-1.574-3.298
		c-1.037-0.898-2.279-1.342-3.732-1.342c-1.613,0-3.236,0.292-4.82,0.888c-1.08,0.362-2.199,0.897-3.391,1.594
		c-0.967,0.564-1.521,0.857-1.623,0.857c-0.695,0-1.039-0.736-1.039-2.219c0-1.12-0.039-1.948-0.15-2.472
		c-0.041-0.232-0.172-0.736-0.443-1.483c-0.232-0.635-0.363-1.12-0.363-1.433c0-0.231,0.17-0.453,0.514-0.685
		c1.695-1.08,3.934-1.927,6.758-2.563c2.512-0.545,4.963-0.817,7.332-0.817c3.854,0,7.072,0.768,9.674,2.31
		c3.047,1.807,4.58,4.358,4.58,7.687c0,4.428-3.691,9.582-11.115,15.493c5.266-0.252,9.4-0.373,12.387-0.373
		C292.676,391.928,293,392.271,293,392.946"/>
	<path fill="#231F20" d="M331.197,384.191c0,4.741-1.693,8.805-5.072,12.194c-3.512,3.53-7.857,5.296-13.043,5.296
		c-5.184,0-9.521-1.766-13.002-5.296c-3.41-3.39-5.113-7.453-5.113-12.194c0-4.751,1.703-8.826,5.113-12.165
		c3.48-3.479,7.818-5.205,13.002-5.205c5.186,0,9.521,1.726,13.002,5.205C329.484,375.396,331.197,379.46,331.197,384.191
		 M319.941,384.191c0-1.907-0.615-3.551-1.826-4.953c-1.311-1.492-2.977-2.238-5.033-2.238c-2.088,0-3.783,0.735-5.053,2.199
		c-1.211,1.371-1.807,3.045-1.807,4.992c0,1.917,0.596,3.592,1.807,5.023c1.291,1.514,2.984,2.278,5.053,2.278
		c1.986,0,3.66-0.776,4.992-2.349C319.326,387.701,319.941,386.057,319.941,384.191"/>
	<path fill="#231F20" d="M370.426,384.191c0,4.741-1.695,8.805-5.084,12.194c-3.51,3.53-7.857,5.296-13.043,5.296
		c-5.184,0-9.521-1.766-13.012-5.296c-3.389-3.39-5.104-7.453-5.104-12.194c0-4.751,1.715-8.826,5.104-12.165
		c3.49-3.479,7.828-5.205,13.012-5.205c5.186,0,9.533,1.726,13.021,5.205C368.709,375.396,370.426,379.46,370.426,384.191
		 M359.158,384.191c0-1.907-0.615-3.551-1.826-4.953c-1.301-1.492-2.975-2.238-5.033-2.238c-2.088,0-3.781,0.735-5.053,2.199
		c-1.211,1.371-1.805,3.045-1.805,4.992c0,1.917,0.594,3.592,1.805,5.023c1.291,1.514,2.984,2.278,5.053,2.278
		c1.988,0,3.662-0.776,5.002-2.349C358.543,387.701,359.158,386.057,359.158,384.191"/>
	<path fill="#231F20" d="M405.346,388.589c0,4.115-1.504,7.313-4.51,9.592c-2.814,2.17-6.545,3.259-11.195,3.259
		c-4.992,0-8.979-1.473-11.934-4.398c-2.865-2.834-4.277-6.524-4.277-11.064c0-5.729,2.422-10.471,7.273-14.192
		c4.609-3.52,10.137-5.275,16.633-5.275c0.383,0,0.664,0.212,0.848,0.646c1.553,3.641,2.318,5.617,2.318,5.972
		c0,0.847-0.443,1.271-1.33,1.271c-2.4,0-4.58,0.282-6.617,0.827c-2.623,0.686-4.418,1.744-5.365,3.156
		c-0.223,0.333-0.324,0.576-0.324,0.727c0,0.111,0.041,0.161,0.182,0.161c0.07,0,0.223-0.03,0.445-0.101
		c1.766-0.705,3.689-1.059,5.77-1.059c3.529,0,6.395,0.927,8.635,2.793C404.195,382.85,405.346,385.411,405.346,388.589
		 M394.904,388.721c0-1.303-0.473-2.371-1.391-3.219c-0.938-0.856-2.129-1.28-3.541-1.28c-1.543,0-2.813,0.403-3.803,1.209
		c-0.998,0.799-1.482,1.898-1.482,3.29c0,1.512,0.404,2.724,1.23,3.65c0.889,0.979,2.158,1.463,3.813,1.463
		c1.635,0,2.926-0.475,3.863-1.452C394.461,391.444,394.904,390.232,394.904,388.721"/>
	<path fill="#231F20" d="M265.352,137.512c0,0.303-0.252,0.515-0.695,0.636c-0.576,0.15-2.32,0.212-5.244,0.212
		c-2.686,0-4.42-0.062-5.186-0.212c-0.637-0.121-1.039-0.495-1.189-1.13c-0.607-2.472-1.07-3.783-1.394-3.954
		c-0.322-0.102-2.844-0.161-7.584-0.161c-3.198,0-4.902,0.09-5.104,0.271c-0.333,0.263-0.695,1.16-1.109,2.693
		c-0.343,1.402-0.787,2.159-1.302,2.28c-0.635,0.15-2.773,0.212-6.404,0.212c-2.885,0-4.318-0.253-4.318-0.737
		c0-0.443,2.109-5.88,6.325-16.299c4.569-11.268,7.051-17.461,7.454-18.58c0.212-0.646,0.485-0.959,0.787-0.959
		c0.504,0,1.292,0.051,2.36,0.132c1.08,0.08,1.876,0.131,2.411,0.131c0.514,0,1.261-0.04,2.25-0.091
		c1.009-0.061,1.755-0.101,2.239-0.101c0.363,0,0.686,0.292,0.989,0.837c0.918,1.785,3.591,7.908,8.03,18.348
		C263.121,131.58,265.352,137.058,265.352,137.512 M245.39,114.302c-0.403,0.747-1.069,2.361-2.017,4.862
		c-1.009,2.652-1.513,4.216-1.513,4.67c0,0.292,0.564,0.454,1.695,0.484c0.575,0.03,1.523,0.05,2.844,0.05
		c1.231,0,1.897-0.131,2.038-0.403c0.03-0.091,0.05-0.202,0.05-0.373c0-0.545-0.414-2.078-1.241-4.579
		C246.409,116.541,245.794,114.988,245.39,114.302"/>
	<path fill="#231F20" d="M294.109,138.57c-1.613,0-3.713-0.04-6.314-0.101c-3.369-0.07-5.486-0.11-6.295-0.121l-8.412-0.11
		c-0.857,0.01-2.057-0.021-3.65-0.101c-0.525-0.082-0.797-0.354-0.797-0.787c0-1.857,0.029-4.641,0.1-8.322
		c0.061-3.701,0.092-6.476,0.092-8.321c0-1.977-0.061-4.922-0.191-8.866c-0.152-3.923-0.211-6.89-0.211-8.856
		c0-0.383,0.281-0.555,0.836-0.555c0.574,0,1.402,0.021,2.521,0.071c1.1,0.061,1.928,0.07,2.471,0.07
		c0.625,0,1.533-0.021,2.766-0.081c1.209-0.061,2.127-0.091,2.742-0.091c0.283,0,0.402,0.172,0.402,0.495l-0.039,0.322
		c-0.213,3.197-0.465,8.009-0.727,14.404l-0.039,6.737c0,2.168,0.02,3.762,0.039,4.751c0.021,0.222,0.041,0.413,0.051,0.625
		c0.02,0.201,0.172,0.323,0.414,0.374h0.744c1.676,0,4.219-0.081,7.588-0.242c3.359-0.172,5.891-0.263,7.584-0.263
		c0.504,0,0.746,0.212,0.746,0.605c0,2.904-0.223,5.407-0.676,7.524c-0.08,0.434-0.293,0.706-0.596,0.787
		C295.178,138.561,294.775,138.57,294.109,138.57"/>
	<path fill="#231F20" d="M328.545,130.249c0,0.736-0.16,2.078-0.475,4.015c-0.332,2.128-0.635,3.389-0.887,3.803
		c-0.232,0.313-0.535,0.474-0.939,0.474c-0.16,0-0.443-0.02-0.826-0.07c-1.371-0.172-5.365-0.263-11.973-0.263
		c-1.441,0-3.582-0.01-6.426-0.02c-2.846-0.021-4.982-0.03-6.406-0.03c-0.613,0-0.926-0.242-0.926-0.747
		c0-1.886,0.102-4.751,0.332-8.563c0.232-3.813,0.344-6.668,0.344-8.574c0-1.937-0.111-5.548-0.344-10.833
		c-0.061-1.361-0.162-3.39-0.313-6.103l-0.02-0.354c-0.041-0.383,0.189-0.585,0.695-0.585c1.393,0,3.471,0.041,6.244,0.102
		c2.793,0.08,4.871,0.101,6.244,0.101c1.371,0,3.43-0.021,6.184-0.101c2.752-0.061,4.799-0.102,6.182-0.102
		c0.949,0,1.523,0.334,1.664,0.999c0.092,0.373,0.252,1.563,0.453,3.54c0.203,1.967,0.305,3.168,0.305,3.58
		c0,0.364-0.182,0.546-0.566,0.546c-0.1,0-0.303-0.011-0.586-0.03c-4.98-0.354-9.42-0.525-13.404-0.525
		c-0.979,0-1.584,0.202-1.816,0.626c-0.109,0.222-0.148,0.867-0.148,1.967c0,1.16,0.201,1.916,0.563,2.29
		c0.324,0.322,0.938,0.484,1.826,0.484c0.191,0,0.557-0.021,1.1-0.031c0.533-0.029,0.979-0.05,1.332-0.05
		c2.369,0,4.74-0.061,7.162-0.172c0.199-0.02,0.705-0.06,1.533-0.121c0.645-0.09,1.148-0.121,1.512-0.121
		c0.443,0,0.678,0.202,0.678,0.596c0-0.354-0.174,0.938-0.525,3.884c-0.152,1.352-0.232,2.702-0.232,4.064
		c0,0.343-0.264,0.504-0.807,0.504l-2.521-0.252c-1.07-0.101-3.49-0.151-7.283-0.151h-2.965c-0.758,0-1.201,0.172-1.332,0.515
		c-0.02,0.081-0.039,0.615-0.039,1.604c0,1.302,0.1,2.149,0.291,2.521c0.313,0.666,1.523,1.05,3.582,1.171h4.104
		c0.998,0,2.463-0.081,4.428-0.253c1.947-0.171,3.41-0.241,4.379-0.241C328.344,129.342,328.545,129.634,328.545,130.249"/>
	<path fill="#231F20" d="M384.557,137.38c0,0.363-0.082,0.585-0.252,0.666c-0.061,0.051-0.334,0.092-0.787,0.121
		c-1.15,0.111-2.764,0.161-4.842,0.161c-2.965,0-4.699-0.05-5.225-0.161c-0.504-0.091-0.768-0.333-0.768-0.676
		c0-1.352,0.061-3.369,0.213-6.052c0.131-2.693,0.211-4.701,0.211-6.053c0-0.654-0.211-1.038-0.625-1.14
		c-0.645-0.141-2.904-0.211-6.799-0.211c-3.914,0-6.184,0.07-6.838,0.211c-0.404,0.081-0.625,0.464-0.625,1.14
		c0,1.332,0.039,3.299,0.131,5.942c0.109,2.652,0.15,4.629,0.15,5.95c0,0.505-0.262,0.808-0.777,0.888
		c-0.594,0.111-2.35,0.161-5.295,0.161c-2.541,0-4.156-0.05-4.852-0.161c-0.555-0.08-0.816-0.343-0.816-0.787
		c0-1.825,0.102-4.589,0.313-8.291c0.191-3.702,0.293-6.476,0.293-8.321c0-1.967-0.082-4.923-0.264-8.876
		c-0.182-3.944-0.281-6.899-0.281-8.856c0-0.384,0.201-0.575,0.596-0.575c0.574,0,1.451,0.021,2.621,0.081
		c1.18,0.051,2.049,0.081,2.623,0.081c0.596,0,1.502-0.03,2.713-0.081c1.211-0.061,2.109-0.081,2.703-0.081
		c0.344,0,0.484,0.162,0.484,0.464c0,1.262-0.102,3.178-0.313,5.709c-0.191,2.532-0.293,4.429-0.293,5.699
		c0,0.596,0.162,0.938,0.525,1.039c0.484,0.142,2.875,0.212,7.182,0.212c3.994,0,6.324-0.07,6.961-0.212
		c0.443-0.101,0.676-0.443,0.676-1.039c0-1.22-0.063-3.056-0.172-5.527c-0.102-2.461-0.172-4.317-0.172-5.558
		c0-0.524,0.23-0.787,0.715-0.787c0.535,0,1.363,0.021,2.482,0.081c1.109,0.051,1.945,0.081,2.521,0.081
		c0.545,0,1.352-0.03,2.48-0.081c1.109-0.061,1.957-0.081,2.521-0.081c0.545,0,0.818,0.212,0.818,0.615
		c0,1.947-0.09,4.893-0.273,8.837c-0.18,3.933-0.281,6.889-0.281,8.855c0,1.846,0.111,4.619,0.322,8.321
		C384.465,132.791,384.557,135.555,384.557,137.38"/>
	<path fill="#231F20" d="M418.779,110.781c0,0.202-0.18,0.293-0.564,0.293c-1.402,0-3.539-0.111-6.395-0.343
		c-2.873-0.223-5.014-0.333-6.434-0.333c-1.797,0-2.865,0.061-3.158,0.171c-0.695,0.304-1.061,1.11-1.061,2.441
		c0,1.614,0.465,2.532,1.363,2.744c0.383,0.09,0.947,0.121,1.715,0.121c1.301,0,3.238-0.061,5.82-0.183
		c2.582-0.12,4.508-0.201,5.799-0.201c0.637,0,0.938,1.503,0.938,4.488c0,2.593-0.1,4.096-0.301,4.52
		c-0.143,0.312-0.385,0.454-0.768,0.454c0.232,0-0.344-0.061-1.775-0.172c-2.008-0.161-5.043-0.262-9.117-0.262
		c-1.313,0-2.059,0-2.23,0.029c-0.947,0.142-1.443,0.505-1.443,1.1c0,2.41,0.121,5.175,0.344,8.321
		c0.191,2.834,0.283,4.096,0.283,3.793c0,0.434-0.596,0.696-1.775,0.757c0.322-0.011-0.516-0.021-2.502-0.021
		c-3.51,0-5.77-0.111-6.779-0.333c-0.545-0.111-0.826-0.383-0.826-0.787c0-1.887,0.082-4.71,0.213-8.493
		c0.15-3.771,0.211-6.606,0.211-8.492c0-2.229-0.102-5.054-0.342-8.453c-0.344-5.245-0.545-8.059-0.545-8.442l-0.041-0.313
		c-0.021-0.424,0.273-0.636,0.846-0.636c1.393,0,3.492,0.03,6.314,0.081c2.805,0.061,4.924,0.07,6.316,0.07
		c1.512,0,3.771-0.11,6.777-0.303c3.025-0.201,5.295-0.303,6.789-0.303c0.957,0,1.461,0.344,1.584,1.049
		c0,0.728,0.029,1.827,0.109,3.288c0.031,0.385,0.152,1.11,0.363,2.18C418.701,109.562,418.779,110.277,418.779,110.781"/>
</g>
</svg>
